# xmcd
#
# Track frame offsets:
#	150
#	10199
#	20966
#	32412
#	42216
#	51457
#	63315
#	73959
#	85991
#	95339
#	105229
#	115341
#	126299
#	136644
#	147837
#	159596
#	168311
#	177483
#	187576
#	197789
#	206152
#	218063
#	228429
#	237942
#	246214
#
# Disc length: 3428 seconds
# Revision: 0
# Processed by: cddbd v1.5.2PL0 Copyright (c) Steve Scherf et al.
# Submitted via: dBpowerAMP V12.0
#
DISCID=600d6219
DTITLE=The Everly Brothers - Greatest Hits, Disc 3 of 3
DYEAR=2013
DGENRE=Pop
TTITLE0=Claudette
TTITLE1=Devoted to You
TTITLE2=Lucille
TTITLE3=Poor Jenny
TTITLE4=I Want You to Know
TTITLE5=Let It Be Me
TTITLE6=Love Hurts
TTITLE7=That's Just Too Much
TTITLE8=You Thrill Me (Through and Through)
TTITLE9=Oh, True Love
TTITLE10=My Mammy
TTITLE11=Long Time Gone
TTITLE12=Be-Bop-a-Lula
TTITLE13=Always It's You
TTITLE14=Leave My Woman Alone
TTITLE15=Since You Broke My Heart
TTITLE16=Like Strangers
TTITLE17=Keep a Knockin'
TTITLE18=This Girl of Mine
TTITLE19=Carol Jane
TTITLE20=Nashville Blues
TTITLE21=Baby What You Want Me to Do?
TTITLE22=A Change of Heart
TTITLE23=Mention My Name in Sheboygan
TTITLE24=The Party's Over
EXTD=
EXTT0=
EXTT1=
EXTT2=
EXTT3=
EXTT4=
EXTT5=
EXTT6=
EXTT7=
EXTT8=
EXTT9=
EXTT10=
EXTT11=
EXTT12=
EXTT13=
EXTT14=
EXTT15=
EXTT16=
EXTT17=
EXTT18=
EXTT19=
EXTT20=
EXTT21=
EXTT22=
EXTT23=
EXTT24=
PLAYORDER=
